<svg width="24" height="24" viewBox="0 0 24 24" fill="none" xmlns="http://www.w3.org/2000/svg">
  <title>Job busser (outlined)</title>
  <g transform="matrix(
          1 0
          0 1
          1 2
        )"><path fill-rule="nonzero" clip-rule="nonzero" d="M 20.900001525878906 10 C 20.60000228881836 7.199999809265137 18.600000381469727 5.000012397766113 16 4.20001220703125 C 14.699999809265137 1.70001220703125 12.000001907348633 0 8.900001525878906 0 C 4.500001430511475 0 0.9000015258789062 3.5999999046325684 0.9000015258789062 8 C 0.9000015258789062 8.699999809265137 1.0000007152557373 9.399999618530273 1.2000007629394531 10 L 0 10 L 0 15 C 0 17.799999237060547 2.200000047683716 20 5 20 L 17 20 C 19.799999237060547 20 22 17.799999237060547 22 15 L 22 10 L 20.900001525878906 10 Z M 17.900001525878906 10 L 10.599998474121094 10 C 10.899998664855957 8.300000190734863 12.499999046325684 7 14.299999237060547 7 C 16.099998474121094 7 17.60000228881836 8.300000190734863 17.900001525878906 10 Z M 4 8 C 4 5.199999809265137 6.199999809265137 3 9 3 C 10.300000190734863 3 11.399999618530273 3.499987840652466 12.299999237060547 4.29998779296875 C 9.799999237060547 5.099987983703613 7.899998664855957 7.300000190734863 7.599998474121094 10 L 4.5 10 C 4.199999809265137 9.399999618530273 4 8.699999809265137 4 8 Z M 19 15 C 19 16.100000381469727 18.100000381469727 17 17 17 L 5 17 C 3.9000000953674316 17 3 16.100000381469727 3 15 L 3 13 L 19 13 L 19 15 Z" fill="currentColor"/></g>
</svg>